<?xml version="1.0" encoding="UTF-8" standalone="no"?>
<!-- Created with Inkscape (http://www.inkscape.org/) -->

<svg
   width="567.4397mm"
   height="413.10281mm"
   viewBox="0 0 567.43972 413.10281"
   version="1.1"
   id="svg935"
   inkscape:version="1.1.2 (0a00cf5339, 2022-02-04)"
   sodipodi:docname="logo-isolated.svg"
   xmlns:inkscape="http://www.inkscape.org/namespaces/inkscape"
   xmlns:sodipodi="http://sodipodi.sourceforge.net/DTD/sodipodi-0.dtd"
   xmlns="http://www.w3.org/2000/svg"
   xmlns:svg="http://www.w3.org/2000/svg">
  <sodipodi:namedview
     id="namedview937"
     pagecolor="#ffffff"
     bordercolor="#666666"
     borderopacity="1.0"
     inkscape:pageshadow="2"
     inkscape:pageopacity="0.0"
     inkscape:pagecheckerboard="0"
     inkscape:document-units="mm"
     showgrid="false"
     inkscape:zoom="0.22645918"
     inkscape:cx="295.85906"
     inkscape:cy="739.64765"
     inkscape:window-width="1876"
     inkscape:window-height="1016"
     inkscape:window-x="0"
     inkscape:window-y="27"
     inkscape:window-maximized="1"
     inkscape:current-layer="layer1" />
  <defs
     id="defs932" />
  <g
     inkscape:label="Layer 1"
     inkscape:groupmode="layer"
     id="layer1"
     transform="translate(157.73868,81.925592)">
    <g
       id="g882"
       transform="matrix(4.1826499,0,0,4.1826499,3765.5563,406.32197)"
       style="stroke-width:0.239083">
      <path
         id="path32513"
         style="fill:#ffffff;stroke-width:0.0632573"
         d="m -882.98008,-116.71447 c -1.08345,0.34064 -1.34828,1.634 -1.4114,2.62875 -0.0983,1.10673 -0.0575,2.29115 0.1228,3.4102 0.31823,1.77802 0.94496,3.57217 2.13564,4.9567 0.25767,0.25899 0.54053,0.49203 0.83982,0.7013 -0.15234,-2.2082 -0.73373,-4.47722 -0.10483,-6.66257 0.16603,-0.88007 1.11601,-1.37487 1.95377,-1.17368 2.79178,0.071 7.21387,3.07188 12.82293,8.73601 -4.1995,1.17219 -8.41715,2.23748 -12.59106,3.50283 0.72054,1.080791 2.07905,1.342591 3.14869,1.945171 4.64006,2.21712 9.14783,4.71809 13.8837,6.73051 1.53302,0.63743 3.14584,1.07049 4.6829,1.68647 2.14094,1.06311 4.37903,2.49796 5.2371,4.84985 0.61619,1.87998 -0.20912,3.79255 -0.53685,5.63789 0.0657,0.49072 0.72424,0.55057 1.0975,0.73448 2.21544,0.68184 4.66316,0.55128 6.83423,-0.22698 1.24093,-0.51246 2.30264,-1.77954 2.05565,-3.18804 -0.1539,-1.28095 -1.34841,-1.98343 -2.03876,-2.96063 -2.10677,-2.63233 -3.55475,-5.77909 -6.02222,-8.12216 -3.34798,-1.68239 -6.30508,-4.03424 -9.22798,-6.34197 -0.29737,-0.357321 0.12972,-0.793551 0.53102,-0.658011 3.17594,0.813891 6.4346,1.658861 9.20201,3.490611 0.76957,3.4716 3.16778,6.24417 5.50939,8.7925 1.16422,1.29138 2.32889,2.58652 3.36794,3.98237 -0.15821,0.46271 -0.22693,0.98109 -0.0274,1.443 1.02085,-0.64802 1.5041,-1.8114 2.25685,-2.71284 0.35449,-0.43684 0.35091,-1.01444 0.0952,-1.49424 -0.78169,-2.01374 -2.66857,-3.24741 -4.13793,-4.7249 -1.49675,-1.36385 -3.02388,-3.00514 -3.21761,-5.12185 -0.20376,-1.24787 -0.98205,-2.28507 -1.6062,-3.351201 -2.01113,-3.0884 -5.06605,-5.46666 -8.5529,-6.66069 -3.79594,-1.43487 -7.80387,-2.09223 -11.75365,-2.99772 -0.48128,0.68868 0.0661,1.51214 0.14862,2.24288 0.22485,0.65366 -0.44943,-0.31501 -0.65787,-0.44315 -1.3105,-1.21831 -2.0005,-3.01553 -3.50333,-4.03251 -3.04668,-1.79075 -6.29499,-3.12635 -9.57614,-4.41511 -0.30697,-0.0809 -0.63899,-0.25562 -0.95959,-0.18327 z m -3.46176,11.09089 c -3.39914,6.391191 -7.8067,12.256171 -13.08944,17.212081 -0.69857,0.78961 -0.8319,1.8917 -1.14466,2.86438 -0.38757,1.42309 -0.50406,2.93382 -0.66342,4.417 3.37013,-2.72325 6.53015,-5.6963 9.7028,-8.63918 2.7509,-2.58697 5.4847,-5.19204 8.23945,-7.77493 0.33627,-1.42746 -0.0364,-2.847661 -0.53855,-4.157071 -0.63324,-1.58822 -1.35256,-3.25879 -1.82941,-4.94825 -0.13915,-0.33688 -0.40607,0.66229 -0.59767,0.87399 -0.0264,0.0507 -0.0527,0.10132 -0.0791,0.15198 z m 6.10677,9.695501 c -2.57893,2.3645 -5.10776,5.10755 -5.97907,8.59209 -0.59838,2.73846 0.60603,5.57815 2.50531,7.53406 2.86642,3.28618 6.57632,5.65119 9.90665,8.41982 2.51226,1.98125 4.88025,4.1743 6.90619,6.65023 -0.20694,-0.82681 -0.73665,-1.5338 -1.05934,-2.31979 -2.30514,-4.71537 -4.74544,-9.36363 -7.148,-14.02915 -2.24801,-4.74608 -3.31678,-9.9434 -5.13174,-14.84726 z m 6.67242,13.49782 c -0.29078,0.007 -0.28323,0.45463 0.0148,0.45867 3.8462,2.0753 8.09635,2.89897 12.28049,4.04447 2.8892,0.87013 5.14977,2.96933 7.49949,4.75729 0.69777,0.6162 1.52526,1.23898 2.51622,1.10776 2.55673,-0.0737 4.84704,-1.92047 5.76682,-4.25998 -1.42087,-0.59322 -2.91898,0.0911 -4.32522,0.38221 -1.40677,0.33509 -2.81306,0.79394 -4.25768,0.88401 -1.71956,-0.16581 -2.76225,-1.71578 -3.88606,-2.83765 -0.78811,-0.81599 -1.82125,-1.37685 -2.94494,-1.54348 -3.15827,-0.93636 -6.42073,-1.4685 -9.58903,-2.35734 -0.99563,-0.32338 -2.01336,-0.67374 -3.07495,-0.63596 z"
         sodipodi:nodetypes="scccccccccccccccccccccccccccccccccccsscccccccccccccccccccccccccccccc" />
      <g
         aria-label="HAZOR"
         transform="scale(1.1077558,0.90272603)"
         id="text32517"
         style="font-size:38.4035px;line-height:1.25;letter-spacing:0px;fill:#ffffff;stroke-width:0.063257">
        <path
           d="m -843.2941,-56.42473 q 0,-1.958578 -0.53765,-2.880262 -0.53765,-0.960088 -2.15059,-0.960088 h -0.76807 v -0.76807 h 3.45631 q 1.42093,0 2.1122,0.384035 0.72966,0.345632 1.03689,1.305719 0.30723,0.960088 0.30723,2.918666 v 6.91263 h 11.52105 v -11.52105 h 3.45631 v 20.73789 q 0,1.958578 0.53765,2.918666 0.53765,0.921684 2.1506,0.921684 h 0.76807 v 0.76807 h -3.45632 q -1.42093,0 -2.15059,-0.345632 -0.69127,-0.384035 -0.99849,-1.344122 -0.30723,-0.960088 -0.30723,-2.918666 v -7.6807 h -11.52105 v 12.28912 h -3.45632 z"
           style="font-family:'ZCOOL XiaoWei';-inkscape-font-specification:'ZCOOL XiaoWei';stroke-width:0.063257"
           id="path32755" />
        <path
           d="m -797.1332,-35.494823 c -1.22891,0 -2.44503,-0.33283 -3.64834,-0.998491 -6.51229,-2.39427 -7.85475,-27.671746 -17.66561,0.806474 h -1.72815 l 10.75298,-25.34631 h 1.1521 l 8.44877,20.545872 c 0.64006,1.484935 1.24171,2.509029 1.80496,3.07228 0.56325,0.537649 1.36973,0.857679 2.41943,0.960088 v 0.76807 c -0.46085,0.128011 -0.97289,0.192017 -1.53614,0.192017 z"
           style="font-family:'ZCOOL XiaoWei';-inkscape-font-specification:'ZCOOL XiaoWei';stroke-width:0.063257"
           id="path32757"
           sodipodi:nodetypes="scccccccccs" />
        <path
           d="m -779.77489,-59.49701 h -9.21684 q -4.80044,0 -4.80044,4.416403 h -0.76807 v -2.880263 q 0,-3.07228 3.2643,-3.07228 h 16.70552 l -16.32148,23.81017 h 15.74543 v 1.53614 h -20.54587 v -0.76807 z"
           style="font-family:'ZCOOL XiaoWei';-inkscape-font-specification:'ZCOOL XiaoWei';stroke-width:0.063257"
           id="path32759" />
        <path
           d="m -760.95725,-34.91877 q -3.57152,0 -6.29817,-1.766561 -2.68824,-1.766561 -4.14758,-4.838841 -1.45933,-3.07228 -1.45933,-6.835823 0,-3.763543 1.45933,-6.835823 1.45934,-3.07228 4.14758,-4.838841 2.72665,-1.766561 6.29817,-1.766561 3.57153,0 6.25978,1.766561 2.72664,1.766561 4.18598,4.838841 1.45933,3.07228 1.45933,6.835823 0,3.763543 -1.45933,6.835823 -1.45934,3.07228 -4.18598,4.838841 -2.68825,1.766561 -6.25978,1.766561 z m 0,-1.53614 q 2.49623,0 4.3012,-1.459333 1.84336,-1.459333 2.80345,-4.109174 0.96009,-2.688245 0.96009,-6.336578 0,-3.648332 -0.96009,-6.298174 -0.96009,-2.688245 -2.80345,-4.147578 -1.80497,-1.459333 -4.3012,-1.459333 -2.49622,0 -4.33959,1.459333 -1.80497,1.459333 -2.76505,4.147578 -0.96009,2.649842 -0.96009,6.298174 0,3.648333 0.96009,6.336578 0.96008,2.649841 2.76505,4.109174 1.84337,1.459333 4.33959,1.459333 z"
           style="font-family:'ZCOOL XiaoWei';-inkscape-font-specification:'ZCOOL XiaoWei';stroke-width:0.063257"
           id="path32761" />
        <path
           d="m -726.58619,-35.302805 q -2.03539,0 -3.57153,-1.190509 -1.49774,-1.228912 -3.3411,-4.377999 l -3.84035,-6.528594 h -2.68825 v 11.713067 h -3.45631 v -20.73789 q 0,-1.958578 -0.53765,-2.880262 -0.53765,-0.960088 -2.1506,-0.960088 h -0.76807 v -0.76807 h 9.98491 q 3.64833,0 6.6054,1.459333 2.99548,1.42093 2.99548,5.453297 0,5.107666 -6.14456,6.528595 l 4.03236,6.720612 q 1.42093,2.381017 2.53463,3.341105 1.15211,0.921684 2.64985,1.075298 v 0.76807 q -0.34564,0.153614 -0.99849,0.268824 -0.61446,0.115211 -1.30572,0.115211 z m -10.56097,-13.441225 q 1.19051,0 2.57304,-0.576052 1.42093,-0.576053 2.38102,-1.804965 0.99849,-1.228912 0.99849,-2.995473 0,-1.881771 -0.99849,-3.110683 -0.96009,-1.267316 -2.38102,-1.843368 -1.38253,-0.614456 -2.57304,-0.614456 -1.34412,0 -2.88026,0.384035 v 10.176927 q 1.53614,0.384035 2.88026,0.384035 z"
           style="font-family:'ZCOOL XiaoWei';-inkscape-font-specification:'ZCOOL XiaoWei';stroke-width:0.063257"
           id="path32763" />
      </g>
      <g
         id="g32537"
         style="fill:#999999;stroke-width:0.239083"
         transform="translate(-946.94144,-231.157)">
        <g
           id="g32531"
           transform="translate(-0.52916663,-0.31581095)"
           style="fill:#999999;stroke-width:0.239083">
          <g
             id="g32523"
             style="fill:#999999;stroke-width:0.239083">
            <path
               style="color:#000000;fill:#999999;stroke-width:0.119542;stroke-linecap:round;-inkscape-stroke:none"
               d="M 41.423852,209.59013 H 19.588505"
               id="path32519" />
            <path
               style="color:#000000;fill:#999999;stroke-width:0.239083;stroke-linecap:round;-inkscape-stroke:none"
               d="m 19.587891,209.33984 a 0.25,0.25 0 0 0 -0.25,0.25 0.25,0.25 0 0 0 0.25,0.25 h 21.835937 a 0.25,0.25 0 0 0 0.25,-0.25 0.25,0.25 0 0 0 -0.25,-0.25 z"
               id="path32521" />
          </g>
          <g
             id="g32529"
             style="fill:#999999;stroke-width:0.239083"
             transform="translate(-7.4083331)">
            <path
               style="color:#000000;fill:#999999;stroke-width:0.119542;stroke-linecap:round;-inkscape-stroke:none"
               d="M 142.4409,209.59013 H 120.60555"
               id="path32525" />
            <path
               style="color:#000000;fill:#999999;stroke-width:0.239083;stroke-linecap:round;-inkscape-stroke:none"
               d="m 120.60547,209.33984 a 0.25,0.25 0 0 0 -0.25,0.25 0.25,0.25 0 0 0 0.25,0.25 h 21.83594 a 0.25,0.25 0 0 0 0.25,-0.25 0.25,0.25 0 0 0 -0.25,-0.25 z"
               id="path32527" />
          </g>
        </g>
        <text
           xml:space="preserve"
           style="font-style:normal;font-variant:normal;font-weight:normal;font-stretch:normal;font-size:10.5833px;line-height:1.25;font-family:Audiowide;-inkscape-font-specification:Audiowide;letter-spacing:5.29167px;fill:#999999;fill-opacity:1;stroke:none;stroke-width:0.0632573"
           x="45.33667"
           y="212.97951"
           id="text32535"><tspan
             sodipodi:role="line"
             id="tspan32533"
             style="font-style:normal;font-variant:normal;font-weight:normal;font-stretch:normal;font-family:'ZCOOL XiaoWei';-inkscape-font-specification:'ZCOOL XiaoWei';fill:#999999;stroke-width:0.0632573"
             x="45.33667"
             y="212.97951">STUDIO</tspan></text>
      </g>
    </g>
  </g>
</svg>
